<svg id="Layer_1" data-name="Layer 1" xmlns="http://www.w3.org/2000/svg" viewBox="0 0 149 160.2"><defs><style>.cls-1{fill:#fff;}.cls-2{fill:#2b2c6a;}</style></defs><title>BIRDlogo</title><path class="cls-1" d="M291.18,208.22a71.79,71.79,0,0,1-71.72-69.09l-.08-1.87V52.43H363v85.73l-.07,1A71.79,71.79,0,0,1,291.18,208.22Z" transform="translate(-216.18 -50.23)"/><path class="cls-2" d="M360.78,54.63v82.61l-.07,1.8a69.86,69.86,0,0,1-21.33,47.47,69.29,69.29,0,0,1-96.4,0A69.85,69.85,0,0,1,221.66,139l-.08-1.82V54.63h139.2m4.4-4.4h-148v89h.08c1.68,39.6,34.12,71.19,73.92,71.19s72.25-31.59,73.92-71.19h.08v-89Z" transform="translate(-216.18 -50.23)"/><path class="cls-2" d="M300.48,151.52a141,141,0,0,0,11,11.34s-12.67,1.24-21.3,1.3V80.91c.51.27,10.24,5.45,10.24,9.76s-6.57,14.73-6.57,14.73,9.13-9.65,30.88-16.94,26-3.65,26-3.65-12.59,20.59-17.34,23.06-13.16.52-27.29,11.6-14.73,19-14.73,19S293,143.18,300.48,151.52Z" transform="translate(-216.18 -50.23)"/><path class="cls-2" d="M290.18,50.23V210.42c-39.8,0-72.24-31.59-73.92-71.19h-.08v-89Z" transform="translate(-216.18 -50.23)"/><path class="cls-1" d="M280.06,151.53a138.22,138.22,0,0,1-10.82,11.34s12.46,1.25,20.94,1.3V80.91c-.49.27-10.06,5.45-10.06,9.77s6.46,14.72,6.46,14.72-9-9.64-30.37-16.94-25.57-3.65-25.57-3.65S243,105.4,247.69,107.88s12.95.52,26.84,11.6,14.48,19,14.48,19S287.44,143.19,280.06,151.53Z" transform="translate(-216.18 -50.23)"/></svg>